<svg xmlns="http://www.w3.org/2000/svg" width="578" height="328" fill="none" viewBox="0 0 578 328"><g clip-path="url(#clip0_61743:5515)"><path fill="#fff" d="M321.024 49.8212L318.473 47.8811C318.388 47.834 318.303 47.7869 318.256 47.8717L316.247 48.7285C316.125 48.7897 316.03 48.8918 315.976 49.0168C315.929 49.1016 315.75 49.2242 315.716 49.0945L314.927 48.3305C314.761 48.2386 314.591 48.1444 314.431 48.2719L307.963 51.0259C307.831 51.0637 307.746 51.0166 307.58 50.9247L306.522 49.4624C306.482 49.3908 306.423 49.3318 306.351 49.2921C306.28 49.2524 306.198 49.2337 306.116 49.2382L305.041 49.3077C304.959 49.3133 304.877 49.2951 304.805 49.2553C304.733 49.2155 304.674 49.1558 304.636 49.0835L304.391 48.7317C304.35 48.6767 304.298 48.6309 304.238 48.597C304.179 48.5631 304.113 48.542 304.044 48.535C303.976 48.528 303.907 48.5352 303.842 48.5562C303.777 48.5772 303.716 48.6116 303.665 48.6571L302.761 49.6875C302.662 49.7951 302.598 49.9303 302.577 50.0752C302.557 50.2202 302.58 50.3681 302.645 50.4995L303.094 51.2757L304.252 53.3421L304.817 54.3095C304.897 54.4443 305.018 54.5499 305.163 54.6108C305.307 54.6718 305.467 54.6848 305.619 54.6481L307.743 54.1768C307.904 54.175 308.062 54.2253 308.193 54.3202L308.459 54.795C308.578 54.9718 308.748 55.0659 308.911 54.9344L310.036 54.6807C310.116 54.6574 310.202 54.6582 310.283 54.6829C310.363 54.7077 310.434 54.7554 310.488 54.8201L311.302 55.9306C311.371 56.0049 311.457 56.0613 311.553 56.095C311.648 56.1286 311.751 56.1385 311.851 56.1239L312.729 55.7335L319.196 52.9794C319.503 52.8168 319.604 52.4344 319.268 52.2483L318.572 51.631C318.402 51.5368 318.46 51.2414 318.626 51.1327L320.852 50.2853C321.132 50.2188 321.19 49.9131 321.024 49.8212Z"/><path fill="#fff" d="M302.979 52.6588C302.941 52.5269 302.813 52.5669 302.766 52.6517L302.57 53.9628L302.429 54.2174L301.305 55.4535C301.274 55.4963 301.253 55.5457 301.243 55.5979C301.233 55.6501 301.235 55.7038 301.249 55.7551L301.842 57.065C301.866 57.1314 301.913 57.1868 301.975 57.2211C302.037 57.2553 302.109 57.266 302.178 57.2511L303.782 56.9353C303.832 56.9213 303.885 56.9189 303.937 56.9283C303.989 56.9376 304.037 56.9586 304.08 56.9895L305.35 57.4764C305.431 57.5213 305.478 57.4364 305.444 57.3067L302.979 52.6588Z"/><path fill="#fff" d="M300.648 56.0763C300.645 56.0484 300.635 56.0216 300.619 55.9983C300.604 55.9749 300.583 55.9556 300.558 55.942C300.534 55.9284 300.506 55.9209 300.478 55.92C300.45 55.9192 300.422 55.9251 300.397 55.9372L299.331 55.8748C299.32 55.8687 299.307 55.8649 299.295 55.8636C299.282 55.8624 299.27 55.8636 299.258 55.8674C299.246 55.8711 299.235 55.8773 299.225 55.8854C299.216 55.8936 299.208 55.9036 299.203 55.9148L294.846 59.4153L294.931 59.4624L295.428 59.5209L295.383 59.6018L292.831 61.0391C292.784 61.1239 292.784 61.1239 292.865 61.1688L300.218 58.9947C300.303 59.0418 300.35 58.9569 300.397 58.8721L301.177 57.6626C301.224 57.5778 301.269 57.497 301.184 57.4499L300.648 56.0763Z"/><path fill="#FFCD1E" d="M276.461 88.5632L276.523 84.053L281.005 83.6045L281.148 84.8185L279.741 84.9421C279.496 84.9707 279.25 84.9843 279.004 84.9828C278.779 84.9851 278.555 84.9685 278.333 84.9332L281.351 87.7021L280.566 88.5557L277.542 85.7783C277.582 85.9229 277.612 86.07 277.632 86.2185C277.653 86.3621 277.665 86.5116 277.673 86.6691L277.672 87.1965L277.664 88.6067L276.461 88.5632Z"/><path fill="#fff" d="M268.557 66.821C269.463 66.4939 270.382 66.9181 270.785 68.0544L271.62 70.3695L266.338 72.2644L265.691 70.3918C265.256 69.19 265.375 68.2479 266.343 67.8965C266.558 67.8075 266.796 67.7838 267.025 67.8282C267.254 67.8727 267.466 67.9833 267.633 68.1464C267.606 67.8519 267.684 67.5575 267.853 67.3151C268.022 67.0727 268.272 66.8978 268.557 66.821ZM268.011 70.5411L267.67 69.6082C267.465 69.0243 267.172 68.7305 266.827 68.8563C266.482 68.9821 266.452 69.382 266.67 69.9726L267.006 70.9033L268.011 70.5411ZM268.809 67.8577C268.338 68.0298 268.268 68.5191 268.503 69.1662L268.89 70.2253L270.271 69.7283L269.884 68.6692C269.649 68.0221 269.286 67.6838 268.809 67.8577Z"/><path fill="#fff" d="M263.124 59.4105L266.299 58.9514C267.762 58.7371 268.932 59.4058 269.141 60.815C269.35 62.2243 268.42 63.1977 266.959 63.4079L263.784 63.8671L263.628 62.82L266.933 62.3375C267.101 62.3308 267.265 62.2889 267.415 62.2147C267.566 62.1405 267.699 62.0356 267.806 61.9066C267.913 61.7777 267.991 61.6278 268.036 61.4664C268.082 61.3051 268.092 61.136 268.068 60.9701C268.044 60.8042 267.985 60.6452 267.895 60.5034C267.805 60.3616 267.686 60.2401 267.547 60.1469C267.407 60.0537 267.249 59.9908 267.084 59.9623C266.918 59.9337 266.749 59.9402 266.586 59.9813L263.28 60.4575L263.124 59.4105Z"/><path fill="#fff" d="M268.589 54.9774L262.983 54.8564L262.997 53.8084L268.618 53.9218L268.589 54.9774Z"/><path fill="#fff" d="M268.416 46.7155L269.467 46.9013L268.9 50.1614L263.36 49.2055L263.541 48.1605L268.016 48.9486L268.416 46.7155Z"/><path fill="#fff" d="M269.44 38.0977C270.888 38.6564 271.672 40.0985 271.002 41.834L270.33 43.5735L265.101 41.5492L265.777 39.812C266.467 38.0299 267.999 37.5373 269.44 38.0977ZM269.058 39.0844C268.851 38.993 268.628 38.9447 268.402 38.9426C268.176 38.9405 267.952 38.9845 267.744 39.0721C267.536 39.1596 267.348 39.2887 267.192 39.4516C267.036 39.6144 266.915 39.8075 266.837 40.0189L266.48 40.9302L269.718 42.1945L270.068 41.285C270.152 41.076 270.193 40.8519 270.188 40.6265C270.183 40.401 270.132 40.1788 270.038 39.9734C269.945 39.768 269.81 39.5836 269.643 39.4316C269.476 39.2795 269.28 39.1629 269.066 39.0889L269.058 39.0844Z"/><path fill="#fff" d="M274.725 25.2451L275.543 25.936L274.599 27.0495L278.07 29.9847L277.385 30.7928L273.913 27.8576L272.971 28.9671L272.156 28.2785L274.725 25.2451Z"/><path fill="#fff" d="M281.519 19.2993L284.999 23.7013L284.164 24.3582L282.754 22.5747L280.879 24.0495L282.289 25.833L281.457 26.4859L277.977 22.084L278.812 21.427L280.218 23.2082L282.093 21.7335L280.687 19.9522L281.519 19.2993Z"/><path fill="#fff" d="M287.015 17.2687L287.559 18.3407L289.332 17.4428L289.817 18.3923L288.044 19.2902L288.589 20.3622L290.718 19.2873L291.203 20.2368L288.126 21.7902L285.597 16.8003L288.67 15.2447L289.153 16.1983L287.015 17.2687Z"/><path fill="#fff" d="M299.653 17.5453L298.792 12.0067L302.202 11.4873L302.366 12.5389L300.007 12.9007L300.194 14.0918L302.162 13.7876L302.327 14.8454L300.349 15.1492L300.697 17.3896L299.653 17.5453Z"/><path fill="#fff" d="M311.104 11.3902L310.979 14.5885C310.921 16.0607 310.052 17.0844 308.627 17.0294C307.203 16.9743 306.413 15.8773 306.473 14.401L306.592 11.2148L307.646 11.2704L307.517 14.599C307.512 14.7566 307.538 14.9137 307.594 15.0614C307.649 15.2091 307.733 15.3445 307.841 15.4599C307.949 15.5752 308.079 15.6683 308.222 15.7337C308.366 15.7992 308.521 15.8357 308.679 15.8413C308.837 15.8468 308.994 15.8213 309.142 15.7662C309.29 15.711 309.425 15.6273 309.541 15.5198C309.656 15.4123 309.749 15.2831 309.814 15.1397C309.879 14.9962 309.916 14.8413 309.921 14.6837L310.051 11.3511L311.104 11.3902Z"/><path fill="#fff" d="M319.341 12.9624L319.091 13.9962L317.688 13.6628L316.627 18.0743L315.594 17.8189L316.657 13.4137L315.254 13.0804L315.501 12.0403L319.341 12.9624Z"/><path fill="#fff" d="M327.613 16.2966L326.27 19.2006C325.652 20.537 324.453 21.1452 323.16 20.5457C321.867 19.9462 321.567 18.6447 322.179 17.2997L323.52 14.3998L324.485 14.8446L323.081 17.868C322.992 18.0125 322.935 18.1742 322.913 18.3425C322.891 18.5108 322.905 18.682 322.954 18.8447C323.003 19.0073 323.086 19.1578 323.198 19.2862C323.309 19.4146 323.447 19.518 323.601 19.5896C323.756 19.6611 323.923 19.6992 324.093 19.7013C324.263 19.7035 324.432 19.6696 324.588 19.6019C324.743 19.5342 324.883 19.4343 324.997 19.3087C325.111 19.1832 325.198 19.0348 325.25 18.8734L326.65 15.8477L327.613 16.2966Z"/><path fill="#fff" d="M330.694 24.9548L330.791 22.7066L330.274 22.3307L329.172 23.8325L328.316 23.2L331.628 18.6991L333.235 19.8789C334.405 20.7379 334.481 21.767 333.826 22.6344C333.597 22.9559 333.271 23.1955 332.895 23.3182C332.52 23.4408 332.115 23.4401 331.739 23.3162L331.721 25.7187L330.694 24.9548ZM330.907 21.4727L331.766 22.1012C331.852 22.1764 331.952 22.2338 332.061 22.2699C332.169 22.306 332.284 22.32 332.397 22.3112C332.511 22.3024 332.622 22.271 332.724 22.2187C332.825 22.1664 332.915 22.0944 332.988 22.0069C333.057 21.9126 333.104 21.8047 333.128 21.6904C333.152 21.5762 333.151 21.4581 333.125 21.3442C333.1 21.2302 333.05 21.1229 332.98 21.0294C332.91 20.9359 332.821 20.8583 332.718 20.8019L331.86 20.1734L330.907 21.4727Z"/><path fill="#fff" d="M338.279 25.7168L337.399 26.5331L338.749 27.9935L337.968 28.7169L336.617 27.2565L335.737 28.0729L337.359 29.8262L336.59 30.5563L334.249 28.0255L338.359 24.2249L340.706 26.7539L339.922 27.4813L338.279 25.7168Z"/><path fill="#FFCD1E" d="M348.728 37.5935L346.817 41.6768L342.531 40.233L342.904 39.0618L344.235 39.5245C344.481 39.6074 344.713 39.6939 344.925 39.7899C345.129 39.8819 345.325 39.9907 345.512 40.115L343.893 36.3474L344.965 35.8846L346.583 39.6523C346.605 39.5046 346.638 39.3588 346.682 39.216C346.724 39.0658 346.777 38.9188 346.841 38.7761C346.914 38.6428 346.967 38.4713 347.044 38.3029L347.622 37.0392L348.728 37.5935Z"/><path fill="#fff" d="M345.467 59.0665L347.418 57.9508L347.463 57.3157L345.6 57.1819L345.66 56.1172L351.256 56.5233L351.121 58.5072C351.021 59.9506 350.19 60.5623 349.11 60.4869C348.714 60.4644 348.337 60.3161 348.032 60.0636C347.727 59.8111 347.51 59.4678 347.415 59.0841L345.371 60.3489L345.467 59.0665ZM348.514 57.3858L348.454 58.4504C348.436 58.5633 348.441 58.6787 348.468 58.7898C348.496 58.9008 348.545 59.0053 348.614 59.0969C348.683 59.1886 348.769 59.2656 348.868 59.3234C348.967 59.3812 349.077 59.4186 349.19 59.4335C349.306 59.44 349.422 59.422 349.53 59.3806C349.638 59.3392 349.736 59.2753 349.817 59.1932C349.899 59.1111 349.962 59.0126 350.002 58.9042C350.043 58.7959 350.06 58.6801 350.052 58.5646L350.112 57.5L348.514 57.3858Z"/><path fill="#fff" d="M346.021 69.5827C345.469 69.4177 344.977 69.0931 344.608 68.6499C344.24 68.2068 344.01 67.6648 343.949 67.0923C343.888 66.5199 343.998 65.9425 344.265 65.433C344.532 64.9235 344.944 64.5046 345.45 64.2292C345.955 63.9537 346.531 63.834 347.106 63.8851C347.68 63.9362 348.226 64.1559 348.676 64.5164C349.127 64.8769 349.46 65.3621 349.635 65.911C349.81 66.4598 349.818 67.0477 349.659 67.6005C349.44 68.3455 348.935 68.9729 348.253 69.3446C347.57 69.7163 346.768 69.8019 346.021 69.5827V69.5827ZM346.316 68.5633C346.668 68.6613 347.041 68.6531 347.388 68.5398C347.735 68.4265 348.04 68.2132 348.265 67.9267C348.491 67.6401 348.626 67.2932 348.654 66.9296C348.683 66.566 348.602 66.2019 348.424 65.8833C348.246 65.5646 347.977 65.3056 347.652 65.1389C347.326 64.9722 346.959 64.9052 346.596 64.9463C346.234 64.9875 345.891 65.1349 345.613 65.3701C345.334 65.6054 345.131 65.9178 345.03 66.2681C344.961 66.503 344.94 66.7494 344.967 66.9928C344.994 67.2363 345.07 67.472 345.189 67.6863C345.308 67.9006 345.469 68.0892 345.661 68.2412C345.854 68.3931 346.075 68.5054 346.311 68.5714L346.316 68.5633Z"/><path fill="#fff" d="M341.344 76.2254L340.298 76.1266C340.153 75.4802 340.242 74.8039 340.55 74.2181C340.731 73.8782 340.978 73.5775 341.275 73.333C341.573 73.0886 341.916 72.9052 342.285 72.7933C342.654 72.6814 343.042 72.6433 343.426 72.6811C343.81 72.7189 344.183 72.8319 344.524 73.0136C344.865 73.1953 345.167 73.4421 345.412 73.74C345.657 74.038 345.842 74.3811 345.955 74.7499C346.067 75.1187 346.106 75.5059 346.069 75.8895C346.032 76.273 345.92 76.6453 345.739 76.9852C345.428 77.5675 344.919 78.0195 344.303 78.2595L343.636 77.447C344.13 77.2953 344.543 76.9547 344.785 76.4995C344.914 76.2288 344.976 75.9306 344.963 75.6307C344.951 75.3308 344.866 75.0382 344.716 74.7782C344.565 74.5182 344.353 74.2986 344.099 74.1384C343.844 73.9782 343.555 73.8822 343.255 73.8587C342.955 73.8352 342.655 73.8849 342.379 74.0036C342.103 74.1222 341.861 74.3061 341.672 74.5395C341.484 74.7729 341.355 75.0488 341.298 75.3432C341.24 75.6376 341.255 75.9418 341.341 76.2294L341.344 76.2254Z"/><path fill="#fff" d="M334.957 82.0751L335.825 81.0514L339.055 81.0289L337.172 79.4588L337.858 78.6507L342.148 82.2664L341.463 83.0746L339.694 81.5673L340.2 84.5715L339.334 85.5911L338.821 82.0447L334.957 82.0751Z"/><path fill="#fff" d="M334.609 88.4862L333.856 87.5418L332.301 88.7924L331.633 87.9633L333.184 86.7104L332.436 85.7682L330.559 87.2469L329.886 86.4155L332.568 84.2578L336.092 88.6265L333.407 90.782L332.738 89.9529L334.609 88.4862Z"/><path fill="#fff" d="M326.26 95.0973L325.777 94.1541L327.062 93.4669L324.911 89.4674L325.842 88.9697L327.994 92.9692L329.284 92.2842L329.79 93.2243L326.26 95.0973Z"/><path fill="#fff" d="M316.872 94.3337C316.571 93.3756 317.065 92.3876 318.475 91.9538C318.876 91.8204 319.3 91.7715 319.722 91.8103C320.143 91.849 320.552 91.9746 320.922 92.179L320.691 93.228C320.405 93.0589 320.087 92.9496 319.758 92.907C319.428 92.8644 319.094 92.8893 318.775 92.9802C318.072 93.1982 317.747 93.5834 317.862 93.9586C317.978 94.3337 318.42 94.4045 319.147 94.2951C320.733 94.0592 321.427 94.4696 321.677 95.2787C321.928 96.0879 321.48 97.1751 320.145 97.5976C319.48 97.8145 318.759 97.7894 318.11 97.5266L318.265 96.5198C318.76 96.7178 319.307 96.7413 319.816 96.5865C320.357 96.4216 320.781 96.1234 320.65 95.6916C320.518 95.2599 320.186 95.287 319.376 95.3928C318.191 95.5342 317.226 95.4803 316.872 94.3337Z"/><path fill="#fff" d="M312.475 98.0125L312.342 96.8196L310.365 97.0345L310.247 95.9767L312.223 95.7617L312.09 94.5688L309.71 94.8346L309.594 93.7728L313.022 93.401L313.645 98.9667L310.215 99.3424L310.099 98.2806L312.475 98.0125Z"/><path fill="#fff" d="M302.485 94.5985L304.831 94.8048L305.335 93.78L306.515 93.9051L303.732 99.285L302.775 99.1984L300.967 93.4102L302.143 93.5331L302.485 94.5985ZM302.798 95.6957L303.393 97.7565L304.331 95.832L302.798 95.6957Z"/><path fill="#fff" d="M293.41 97.2342L293.695 96.2041L295.102 96.5975L296.318 92.23L297.34 92.5159L296.123 96.8835L297.53 97.2769L297.248 98.3031L293.41 97.2342Z"/><path fill="url(#paint0_linear_61743:5515)" fill-rule="evenodd" d="M243.269 282.732C247.628 283.467 252.111 283.115 256.286 281.71L256.144 281.073C261.653 270.845 258.661 257.943 251.804 248.491C244.948 239.039 234.822 232.305 224.919 225.779L211.149 216.706L217.727 248.297C219.95 258.978 222.683 270.513 231.4 277.515C234.822 280.2 238.91 281.997 243.269 282.732ZM234.538 308.921C237.433 307.491 239.894 305.371 241.685 302.767L241.305 302.454C239.765 294.113 232 287.834 223.58 285.225C215.16 282.616 206.091 282.994 197.251 283.398L184.958 283.961L203.532 299.656C209.812 304.962 216.788 310.551 225.155 310.931C228.411 311.043 231.642 310.351 234.538 308.921Z" clip-rule="evenodd"/><path fill="#1B873F" d="M255.109 319.958C256.503 310.243 257.936 300.403 256.958 290.583C256.09 281.862 253.31 273.344 247.65 266.36C244.646 262.66 240.99 259.49 236.847 256.992C235.767 256.34 234.773 257.978 235.848 258.628C243.016 262.963 248.561 269.365 251.682 276.91C255.129 285.301 255.682 294.448 255.088 303.361C254.729 308.752 253.968 314.107 253.2 319.455C253.14 319.697 253.178 319.951 253.306 320.168C253.434 320.384 253.644 320.545 253.892 320.62C254.145 320.685 254.414 320.652 254.642 320.528C254.87 320.404 255.038 320.2 255.109 319.958V319.958Z"/><path fill="#1B873F" d="M259.048 325.543C252.34 314.184 244.559 301.559 230.656 297.524C226.79 296.406 222.737 296.006 218.714 296.344C217.446 296.449 217.762 298.319 219.028 298.215C225.771 297.679 232.501 299.383 238.086 303.04C243.459 306.54 247.643 311.407 251.184 316.568C253.353 319.729 255.296 323.024 257.24 326.315C257.861 327.366 259.676 326.607 259.048 325.543V325.543Z"/><path fill="url(#paint1_linear_61743:5515)" d="M438.846 97.9854L292.597 213.986C290.757 215.443 288.388 216.141 286.011 215.928C283.633 215.715 281.441 214.608 279.915 212.85L218.265 141.663C216.743 139.902 216.014 137.635 216.236 135.36C216.459 133.085 217.615 130.987 219.452 129.527L365.701 13.5257C367.541 12.0695 369.909 11.3712 372.287 11.5842C374.664 11.7972 376.856 12.904 378.382 14.6617L440.033 85.8492C441.554 87.6103 442.284 89.877 442.061 92.1522C441.839 94.4274 440.682 96.5252 438.846 97.9854Z"/><path fill="#fff" d="M432.985 94.4925L290.098 207.827C289.15 208.577 287.93 208.937 286.705 208.827C285.481 208.717 284.351 208.147 283.565 207.242L224.701 139.272C223.917 138.364 223.541 137.197 223.656 136.025C223.771 134.852 224.366 133.772 225.313 133.02L368.199 19.6853C369.147 18.9351 370.367 18.5754 371.592 18.6851C372.817 18.7949 373.946 19.365 374.732 20.2706L433.596 88.2405C434.38 89.1477 434.756 90.3155 434.642 91.4875C434.527 92.6596 433.931 93.7403 432.985 94.4925Z"/><path fill="url(#paint2_linear_61743:5515)" d="M439.572 118.217L410.183 115.584L431.217 99.7412L442.548 112.825C442.99 113.324 443.264 113.94 443.334 114.59C443.405 115.241 443.268 115.897 442.942 116.473C442.729 116.863 442.436 117.209 442.083 117.492C441.735 117.766 441.334 117.971 440.903 118.095C440.472 118.22 440.02 118.261 439.572 118.217V118.217Z"/><path fill="url(#paint3_linear_61743:5515)" d="M380.555 67.8398L308.271 125.174C307.83 125.524 307.32 125.787 306.772 125.949C306.225 126.111 305.649 126.168 305.078 126.117C304.507 126.066 303.952 125.907 303.445 125.651C302.938 125.395 302.489 125.045 302.123 124.623C301.757 124.2 301.481 123.713 301.312 123.189C301.143 122.664 301.084 122.113 301.137 121.567C301.19 121.02 301.356 120.489 301.624 120.004C301.892 119.519 302.257 119.089 302.698 118.739L374.982 61.4048C375.424 61.0546 375.933 60.7911 376.481 60.6292C377.029 60.4674 377.605 60.4104 378.176 60.4615C378.747 60.5127 379.301 60.671 379.808 60.9273C380.315 61.1837 380.765 61.5331 381.131 61.9556C381.497 62.3782 381.772 62.8655 381.941 63.3899C382.11 63.9143 382.17 64.4654 382.116 65.0118C382.063 65.5582 381.897 66.0892 381.63 66.5744C381.362 67.0597 380.997 67.4896 380.555 67.8398V67.8398Z"/><path fill="url(#paint4_linear_61743:5515)" d="M345.178 72.8323L296.429 111.499C295.537 112.207 294.388 112.546 293.235 112.443C292.082 112.339 291.019 111.802 290.28 110.948C289.541 110.095 289.187 108.996 289.295 107.892C289.402 106.789 289.964 105.772 290.856 105.064L339.605 66.3972C340.497 65.69 341.646 65.3507 342.799 65.454C343.952 65.5573 345.015 66.0947 345.754 66.9481C346.493 67.8014 346.847 68.9007 346.739 70.0042C346.632 71.1078 346.07 72.125 345.178 72.8323Z"/><path fill="url(#paint5_linear_61743:5515)" d="M269.641 151.912C277.177 151.912 283.287 146.065 283.287 138.853C283.287 131.64 277.177 125.793 269.641 125.793C262.105 125.793 255.995 131.64 255.995 138.853C255.995 146.065 262.105 151.912 269.641 151.912Z"/><path fill="url(#paint6_linear_61743:5515)" fill-rule="evenodd" d="M406.089 89.8298C406.089 92.1378 404.134 94.0088 401.722 94.0088C399.31 94.0088 397.355 92.1378 397.355 89.8298C397.355 87.5219 399.31 85.6509 401.722 85.6509C404.134 85.6509 406.089 87.5219 406.089 89.8298ZM389.955 103.342C392.367 103.342 394.322 101.471 394.322 99.1633C394.322 96.8553 392.367 94.9844 389.955 94.9844C387.543 94.9844 385.588 96.8553 385.588 99.1633C385.588 101.471 387.543 103.342 389.955 103.342ZM378.188 112.676C380.599 112.676 382.554 110.805 382.554 108.497C382.554 106.189 380.599 104.318 378.188 104.318C375.776 104.318 373.821 106.189 373.821 108.497C373.821 110.805 375.776 112.676 378.188 112.676Z" clip-rule="evenodd"/><path fill="#FFB8B8" d="M332.123 318.266L342.148 318.265L346.917 281.26L332.121 281.261L332.123 318.266Z"/><path fill="#2F2E41" d="M329.566 315.134L349.308 315.133H349.309C350.962 315.133 352.598 315.444 354.124 316.05C355.651 316.655 357.038 317.541 358.206 318.66C359.374 319.778 360.301 321.105 360.933 322.566C361.565 324.027 361.891 325.592 361.891 327.174V327.565L329.567 327.566L329.566 315.134Z"/><path fill="#FFB8B8" d="M296.144 318.266L306.169 318.265L310.938 281.26L296.142 281.261L296.144 318.266Z"/><path fill="#2F2E41" d="M293.587 315.134L313.33 315.133H313.33C314.983 315.133 316.619 315.444 318.145 316.05C319.672 316.655 321.059 317.541 322.227 318.66C323.395 319.778 324.322 321.105 324.954 322.566C325.587 324.027 325.912 325.592 325.912 327.174V327.565L293.588 327.566L293.587 315.134Z"/><path fill="#2F2E41" d="M306.204 306.943H306.202L297.677 306.941C296.724 306.944 295.806 306.591 295.12 305.958C294.434 305.324 294.033 304.459 294.002 303.546L293.733 296.409C291.578 239.329 289.35 180.306 303.151 153.777L303.259 153.569L348.953 151.986L358.126 232.519C358.518 235.954 358.375 239.426 357.701 242.821L345.574 303.976C345.41 304.805 344.94 305.55 344.25 306.076C343.56 306.601 342.696 306.872 341.815 306.839L332.239 306.541C331.738 306.522 331.246 306.405 330.793 306.198C330.341 305.99 329.937 305.696 329.608 305.334C329.279 304.972 329.03 304.549 328.878 304.091C328.725 303.633 328.672 303.151 328.722 302.673L336.244 246.111C336.5 243.669 336.269 241.204 335.561 238.845L326.206 207.548C326.129 207.289 325.961 207.063 325.731 206.909C325.5 206.755 325.222 206.681 324.941 206.7C324.66 206.718 324.395 206.829 324.19 207.013C323.984 207.197 323.851 207.442 323.812 207.709L309.848 303.906C309.723 304.747 309.286 305.516 308.617 306.074C307.948 306.632 307.091 306.94 306.204 306.943V306.943Z"/><path fill="#FFB8B8" d="M311.668 71.4711C322.76 71.4711 331.752 62.8659 331.752 52.2508C331.752 41.6357 322.76 33.0305 311.668 33.0305C300.577 33.0305 291.585 41.6357 291.585 52.2508C291.585 62.8659 300.577 71.4711 311.668 71.4711Z"/><path fill="#FFB8B8" d="M259.082 191.687C260.333 191.409 261.505 190.872 262.516 190.113C263.526 189.355 264.351 188.394 264.931 187.297C265.512 186.201 265.834 184.996 265.875 183.768C265.916 182.54 265.675 181.318 265.17 180.188L297.553 110.171L279.028 105.706L253.022 175.934C251.095 176.873 249.595 178.456 248.806 180.382C248.017 182.308 247.994 184.445 248.741 186.387C249.488 188.329 250.953 189.941 252.859 190.917C254.765 191.894 256.979 192.168 259.082 191.687H259.082Z"/><path fill="#FFB8B8" d="M394.168 11.5135C394.559 12.6841 394.677 13.9226 394.514 15.1416C394.351 16.3607 393.91 17.5306 393.223 18.5692C392.537 19.6077 391.62 20.4894 390.539 21.1524C389.458 21.8153 388.238 22.2433 386.965 22.4061L340.708 84.8808L327.214 71.9402L376.926 14.5988C376.782 12.5342 377.434 10.4907 378.759 8.85562C380.084 7.2205 381.99 6.10731 384.115 5.72701C386.24 5.34671 388.437 5.72572 390.29 6.7922C392.143 7.85868 393.523 9.53856 394.168 11.5135V11.5135Z"/><path fill="url(#paint7_linear_61743:5515)" fill-rule="evenodd" d="M351.241 79.1464C351.415 78.6311 351.471 78.0858 351.405 77.5478C351.34 77.0097 351.153 76.4914 350.86 76.0284C350.566 75.5654 350.171 75.1685 349.702 74.8649L333.232 64.1883C332.763 63.8846 332.231 63.681 331.673 63.5915C331.115 63.5021 330.543 63.5288 329.997 63.6699C329.45 63.8111 328.942 64.0632 328.507 64.4093C328.071 64.7553 327.719 65.1871 327.473 65.6752L321.164 78.23C317.956 77.369 314.578 77.143 311.24 77.5885C307.631 78.0603 304.178 79.2992 301.135 81.2146C298.552 82.8399 296.32 84.9172 294.553 87.3326C293.248 87.3112 291.938 87.513 290.686 87.9409C287.96 88.8727 285.731 90.8006 284.487 93.3023L273.538 109.128C273.225 109.579 273.018 110.09 272.931 110.625C272.843 111.16 272.877 111.707 273.03 112.229C273.184 112.75 273.452 113.234 273.819 113.647C274.185 114.06 274.64 114.393 275.152 114.622L293.169 122.693C293.682 122.923 294.24 123.044 294.806 123.049C295.372 123.053 295.932 122.941 296.449 122.719C296.588 122.66 296.724 122.592 296.855 122.518L303.664 140.443L301.611 153.9C301.535 154.4 301.572 154.91 301.72 155.396C301.868 155.881 302.124 156.33 302.469 156.712C302.815 157.095 303.242 157.401 303.722 157.612C304.203 157.822 304.725 157.931 305.253 157.931H346.811C347.351 157.931 347.884 157.817 348.373 157.598C348.862 157.378 349.295 157.058 349.64 156.661C349.985 156.264 350.235 155.798 350.371 155.298C350.508 154.798 350.527 154.275 350.429 153.767L339.254 96.1397L337.958 93.4997L350.395 80.5341C350.778 80.1351 351.066 79.6618 351.241 79.1464Z" clip-rule="evenodd"/><path fill="#2F2E41" d="M338.057 44.2055C338.044 42.466 337.792 40.7357 337.306 39.0595C334.07 27.6166 322.125 20.7488 310.138 22.4723C307.806 21.8326 305.393 21.5092 302.968 21.5115V21.5115C296.798 21.5115 290.832 23.6228 286.146 27.4641C281.46 31.3054 278.365 36.6235 277.418 42.458L267.734 102.114H320.067L328.518 50.0547C328.831 48.12 328.905 46.1567 328.738 44.2055H338.057Z"/><path fill="#CCC" d="M403.101 328H230.566C230.349 328 230.141 327.918 229.988 327.771C229.834 327.624 229.748 327.425 229.748 327.218C229.748 327.01 229.834 326.811 229.988 326.664C230.141 326.518 230.349 326.435 230.566 326.435H403.101C403.318 326.435 403.526 326.518 403.679 326.664C403.833 326.811 403.919 327.01 403.919 327.218C403.919 327.425 403.833 327.624 403.679 327.771C403.526 327.918 403.318 328 403.101 328Z"/><path fill="#FF7A29" d="M165.791 237.736H144.799V175.833C144.799 172.545 143.494 169.392 141.173 167.067C138.851 164.742 135.702 163.436 132.419 163.436H127.5C125.874 163.436 124.264 163.757 122.762 164.38C121.26 165.003 119.896 165.916 118.746 167.067C117.596 168.218 116.685 169.585 116.062 171.089C115.44 172.593 115.12 174.205 115.12 175.833V237.736H55.9081C54.69 237.736 53.4925 237.421 52.4319 236.821C51.3714 236.221 50.4836 235.356 49.8549 234.312C49.2261 233.267 48.8777 232.077 48.8434 230.858C48.8092 229.639 49.0902 228.431 49.6592 227.353L112.329 108.575C113.11 107.094 113.583 105.47 113.721 103.8C113.858 102.131 113.656 100.452 113.127 98.8627C112.598 97.2738 111.753 95.8087 110.643 94.5558C109.533 93.303 108.181 92.2884 106.669 91.5732L102.969 89.8238C100.097 88.4654 96.8125 88.2648 93.7963 89.2635C90.7801 90.2623 88.2628 92.3839 86.7652 95.1894L10.3317 238.371C9.03012 240.81 8.34918 243.532 8.34918 246.296V246.296C8.34918 248.504 8.78339 250.69 9.62701 252.729C10.4706 254.769 11.7072 256.622 13.266 258.183C14.8248 259.744 16.6754 260.982 18.712 261.827C20.7487 262.672 22.9316 263.107 25.1361 263.107H115.12V302.25C115.12 304.201 115.504 306.134 116.25 307.937C116.995 309.74 118.088 311.378 119.466 312.758C120.844 314.137 122.48 315.232 124.281 315.979C126.081 316.726 128.011 317.11 129.959 317.11H129.959C131.908 317.11 133.838 316.726 135.638 315.979C137.439 315.232 139.074 314.137 140.452 312.758C141.83 311.378 142.923 309.74 143.669 307.937C144.415 306.134 144.799 304.201 144.799 302.25V263.107H165.791C169.151 263.107 172.373 261.77 174.748 259.391C177.124 257.012 178.459 253.786 178.459 250.421V250.421C178.459 247.057 177.124 243.83 174.748 241.451C172.373 239.072 169.151 237.736 165.791 237.736V237.736Z"/><path fill="#FF7A29" d="M554.509 237.736H533.517V175.833C533.517 172.545 532.213 169.392 529.891 167.067C527.569 164.742 524.421 163.436 521.137 163.436H516.218C514.593 163.436 512.983 163.757 511.481 164.38C509.979 165.003 508.614 165.916 507.464 167.067C506.315 168.218 505.403 169.585 504.781 171.089C504.159 172.593 503.838 174.205 503.838 175.833V237.736H444.627C443.408 237.736 442.211 237.421 441.15 236.821C440.09 236.221 439.202 235.356 438.573 234.312C437.945 233.267 437.596 232.077 437.562 230.858C437.528 229.639 437.809 228.431 438.378 227.353L501.047 108.575C501.828 107.094 502.302 105.47 502.439 103.8C502.576 102.131 502.374 100.452 501.845 98.8627C501.316 97.2738 500.472 95.8087 499.362 94.5558C498.252 93.303 496.9 92.2884 495.387 91.5732L491.688 89.8238C488.815 88.4654 485.531 88.2648 482.515 89.2635C479.499 90.2623 476.981 92.3839 475.484 95.1894L399.05 238.371C397.749 240.81 397.068 243.532 397.068 246.296V246.296C397.068 250.755 398.836 255.03 401.984 258.183C405.133 261.336 409.402 263.107 413.855 263.107H503.838V302.25C503.838 306.191 505.402 309.971 508.185 312.758C510.968 315.544 514.742 317.11 518.678 317.11V317.11C522.613 317.11 526.388 315.544 529.171 312.758C531.954 309.971 533.517 306.191 533.517 302.25V263.107H554.509C557.869 263.107 561.091 261.77 563.467 259.391C565.842 257.012 567.177 253.786 567.177 250.421V250.421C567.177 247.057 565.842 243.83 563.467 241.451C561.091 239.072 557.869 237.736 554.509 237.736Z"/><path stroke="#3F3D56" stroke-miterlimit="10" d="M171.582 230.487H150.59V168.584C150.59 166.956 150.27 165.344 149.647 163.84C149.025 162.336 148.113 160.97 146.964 159.818C145.814 158.667 144.449 157.754 142.947 157.131C141.445 156.508 139.836 156.187 138.21 156.187H133.291C130.008 156.187 126.859 157.494 124.537 159.818C122.215 162.143 120.911 165.297 120.911 168.584V230.487H61.6991C60.481 230.487 59.2835 230.172 58.2229 229.572C57.1623 228.972 56.2746 228.108 55.6459 227.063C55.0171 226.018 54.6687 224.828 54.6344 223.609C54.6002 222.39 54.8812 221.182 55.4502 220.104L118.12 101.326C118.901 99.845 119.374 98.2209 119.512 96.5517C119.649 94.8825 119.447 93.2028 118.918 91.6139C118.389 90.025 117.544 88.5599 116.434 87.3071C115.324 86.0542 113.972 85.0396 112.46 84.3244L108.76 82.575C105.888 81.2166 102.604 81.016 99.5873 82.0147C96.5712 83.0135 94.0538 85.1351 92.5562 87.9406L16.1227 231.123C14.8211 233.561 14.1402 236.283 14.1402 239.048V239.048C14.1402 243.506 15.9088 247.782 19.057 250.934C22.2051 254.087 26.4749 255.858 30.9271 255.858H120.911V295.001C120.911 296.953 121.295 298.885 122.041 300.688C122.786 302.491 123.879 304.129 125.257 305.509C126.635 306.889 128.271 307.983 130.072 308.73C131.872 309.477 133.802 309.861 135.75 309.861H135.75C139.686 309.861 143.46 308.296 146.243 305.509C149.026 302.722 150.59 298.942 150.59 295.001V255.858H171.582C173.246 255.858 174.893 255.53 176.43 254.892C177.967 254.255 179.363 253.32 180.539 252.142C181.716 250.965 182.649 249.566 183.285 248.027C183.922 246.488 184.25 244.838 184.25 243.173V243.173C184.25 241.507 183.922 239.857 183.285 238.318C182.649 236.779 181.716 235.381 180.539 234.203C179.363 233.025 177.967 232.09 176.43 231.453C174.893 230.815 173.246 230.487 171.582 230.487V230.487Z"/><path stroke="#3F3D56" stroke-miterlimit="10" d="M565.367 230.487H544.375V168.584C544.375 165.297 543.071 162.143 540.749 159.818C538.428 157.494 535.279 156.187 531.995 156.187H527.076C525.451 156.187 523.841 156.508 522.339 157.131C520.837 157.754 519.472 158.667 518.322 159.818C517.173 160.97 516.261 162.336 515.639 163.84C515.017 165.344 514.697 166.956 514.697 168.584V230.487H455.485C454.266 230.487 453.069 230.172 452.008 229.572C450.948 228.972 450.06 228.108 449.431 227.063C448.803 226.018 448.454 224.828 448.42 223.609C448.386 222.39 448.667 221.182 449.236 220.104L511.905 101.326C512.686 99.845 513.16 98.2209 513.297 96.5517C513.434 94.8825 513.232 93.2028 512.703 91.6139C512.175 90.025 511.33 88.5599 510.22 87.3071C509.11 86.0542 507.758 85.0396 506.245 84.3244L502.546 82.575C499.673 81.2166 496.389 81.016 493.373 82.0147C490.357 83.0135 487.839 85.1351 486.342 87.9406L409.908 231.123C408.607 233.561 407.926 236.283 407.926 239.048C407.926 243.506 409.694 247.782 412.842 250.934C415.991 254.087 420.26 255.858 424.713 255.858H514.697V295.001C514.697 298.942 516.26 302.722 519.043 305.509C521.826 308.296 525.6 309.861 529.536 309.861C533.471 309.861 537.246 308.296 540.029 305.509C542.812 302.722 544.375 298.942 544.375 295.001V255.858H565.367C567.031 255.858 568.678 255.53 570.215 254.892C571.752 254.255 573.148 253.32 574.325 252.142C575.501 250.965 576.434 249.566 577.071 248.027C577.707 246.488 578.035 244.838 578.035 243.173C578.035 239.808 576.701 236.582 574.325 234.203C571.949 231.824 568.727 230.487 565.367 230.487Z"/><path fill="#000" d="M272.894 28.3711C262.184 28.3711 253.315 18.1541 251.759 4.82324C251.597 6.21346 251.516 7.61194 251.516 9.01159C251.516 24.3298 261.087 36.7478 272.894 36.7478C284.7 36.7478 294.271 24.3299 294.271 9.01159C294.271 7.61194 294.19 6.21346 294.028 4.82324C292.472 18.1541 283.603 28.3711 272.894 28.3711Z" opacity=".1"/></g><defs><linearGradient id="paint0_linear_61743:5515" x1="184.958" x2="273.862" y1="218.941" y2="236.742" gradientUnits="userSpaceOnUse"><stop stop-color="#FF008E"/><stop offset="1" stop-color="#FFCD1E"/></linearGradient><linearGradient id="paint1_linear_61743:5515" x1="216.197" x2="477.573" y1="16.395" y2="90" gradientUnits="userSpaceOnUse"><stop stop-color="#FF008E"/><stop offset="1" stop-color="#FFCD1E"/></linearGradient><linearGradient id="paint2_linear_61743:5515" x1="410.183" x2="444.447" y1="100.18" y2="115.84" gradientUnits="userSpaceOnUse"><stop offset="0" stop-color="#FF1393"/><stop offset="0" stop-color="#FF007A"/><stop offset=".177" stop-color="#FFB31E"/></linearGradient><linearGradient id="paint3_linear_61743:5515" x1="301.118" x2="393.196" y1="62.002" y2="90.939" gradientUnits="userSpaceOnUse"><stop stop-color="#FF008E"/><stop offset="1" stop-color="#FFCD1E"/></linearGradient><linearGradient id="paint4_linear_61743:5515" x1="289.276" x2="354.71" y1="66.551" y2="86.933" gradientUnits="userSpaceOnUse"><stop stop-color="#FF008E"/><stop offset="1" stop-color="#FFCD1E"/></linearGradient><linearGradient id="paint5_linear_61743:5515" x1="255.995" x2="287.82" y1="126.413" y2="134.887" gradientUnits="userSpaceOnUse"><stop stop-color="#FF008E"/><stop offset="1" stop-color="#FFCD1E"/></linearGradient><linearGradient id="paint6_linear_61743:5515" x1="373.821" x2="410.702" y1="86.292" y2="97.513" gradientUnits="userSpaceOnUse"><stop stop-color="#FF008E"/><stop offset="1" stop-color="#FFCD1E"/></linearGradient><linearGradient id="paint7_linear_61743:5515" x1="272.883" x2="366.752" y1="65.779" y2="85.684" gradientUnits="userSpaceOnUse"><stop stop-color="#FF008E"/><stop offset="1" stop-color="#FFCD1E"/></linearGradient><clipPath id="clip0_61743:5515"><rect width="578" height="328" fill="#fff"/></clipPath></defs></svg>