<svg xmlns="http://www.w3.org/2000/svg" width="258" height="322" fill="none" viewBox="0 0 258 322"><g clip-path="url(#clip0_61743:5515)"><path fill="#fff" d="M136.024 43.8212L133.473 41.8811C133.388 41.834 133.303 41.7869 133.256 41.8717L131.247 42.7285C131.125 42.7897 131.03 42.8918 130.976 43.0168C130.929 43.1016 130.75 43.2242 130.716 43.0945L129.927 42.3305C129.761 42.2386 129.591 42.1444 129.431 42.2719L122.963 45.0259C122.831 45.0637 122.746 45.0166 122.58 44.9247L121.522 43.4624C121.482 43.3908 121.423 43.3318 121.351 43.2921C121.28 43.2524 121.198 43.2337 121.116 43.2382L120.041 43.3077C119.959 43.3133 119.877 43.2951 119.805 43.2553C119.733 43.2155 119.674 43.1558 119.636 43.0835L119.391 42.7317C119.35 42.6767 119.298 42.6309 119.238 42.597C119.179 42.5631 119.113 42.542 119.044 42.535C118.976 42.528 118.907 42.5352 118.842 42.5562C118.777 42.5772 118.716 42.6116 118.665 42.6571L117.761 43.6875C117.662 43.7951 117.598 43.9303 117.577 44.0752C117.557 44.2202 117.58 44.3681 117.645 44.4995L118.094 45.2757L119.252 47.3421L119.817 48.3095C119.897 48.4443 120.018 48.5499 120.163 48.6108C120.307 48.6718 120.467 48.6848 120.619 48.6481L122.743 48.1768C122.904 48.175 123.062 48.2253 123.193 48.3202L123.459 48.795C123.578 48.9718 123.748 49.0659 123.911 48.9344L125.036 48.6807C125.116 48.6574 125.202 48.6582 125.283 48.6829C125.363 48.7077 125.434 48.7554 125.488 48.8201L126.302 49.9306C126.371 50.0049 126.457 50.0613 126.553 50.095C126.648 50.1286 126.751 50.1385 126.851 50.1239L127.729 49.7335L134.196 46.9794C134.503 46.8168 134.604 46.4344 134.268 46.2483L133.572 45.631C133.402 45.5368 133.46 45.2414 133.626 45.1327L135.852 44.2853C136.132 44.2188 136.19 43.9131 136.024 43.8212Z"/><path fill="#fff" d="M117.979 46.6588C117.941 46.5269 117.813 46.5669 117.766 46.6517L117.57 47.9628L117.429 48.2174L116.305 49.4535C116.274 49.4963 116.253 49.5457 116.243 49.5979C116.233 49.6501 116.235 49.7038 116.249 49.7551L116.842 51.065C116.866 51.1314 116.913 51.1868 116.975 51.2211C117.037 51.2553 117.109 51.266 117.178 51.2511L118.782 50.9353C118.832 50.9213 118.885 50.9189 118.937 50.9283C118.989 50.9376 119.037 50.9586 119.08 50.9895L120.35 51.4764C120.431 51.5213 120.478 51.4364 120.444 51.3067L117.979 46.6588Z"/><path fill="#fff" d="M115.648 50.0763C115.645 50.0484 115.635 50.0216 115.619 49.9983C115.604 49.9749 115.583 49.9556 115.558 49.942C115.534 49.9284 115.506 49.9209 115.478 49.92C115.45 49.9192 115.422 49.9251 115.397 49.9372L114.331 49.8748C114.32 49.8687 114.307 49.8649 114.295 49.8636C114.282 49.8624 114.27 49.8636 114.258 49.8674C114.246 49.8711 114.235 49.8773 114.225 49.8854C114.216 49.8936 114.208 49.9036 114.203 49.9148L109.846 53.4153L109.931 53.4624L110.428 53.5209L110.383 53.6018L107.831 55.0391C107.784 55.1239 107.784 55.1239 107.865 55.1688L115.218 52.9947C115.303 53.0418 115.35 52.9569 115.397 52.8721L116.177 51.6626C116.224 51.5778 116.269 51.497 116.184 51.4499L115.648 50.0763Z"/><path fill="#FFCD1E" d="M91.4606 82.5632L91.5232 78.053L96.0051 77.6045L96.1479 78.8185L94.7407 78.9421C94.4961 78.9707 94.25 78.9843 94.0037 78.9828C93.7791 78.9851 93.5546 78.9685 93.3326 78.9332L96.3508 81.7021L95.566 82.5557L92.542 79.7783C92.5817 79.9229 92.6116 80.07 92.6316 80.2185C92.6527 80.3621 92.6652 80.5116 92.6732 80.6691L92.6723 81.1965L92.6643 82.6067L91.4606 82.5632Z"/><path fill="#fff" d="M83.5573 60.821C84.4634 60.4939 85.3822 60.9181 85.7851 62.0544L86.6202 64.3695L81.3376 66.2644L80.6914 64.3918C80.256 63.19 80.3754 62.2479 81.3426 61.8965C81.5583 61.8075 81.7955 61.7838 82.0249 61.8282C82.2543 61.8727 82.4657 61.9833 82.6331 62.1464C82.6062 61.8519 82.6841 61.5575 82.8531 61.3151C83.0222 61.0727 83.2715 60.8978 83.5573 60.821ZM83.0113 64.5411L82.6705 63.6082C82.4645 63.0243 82.1721 62.7305 81.8273 62.8563C81.4824 62.9821 81.4515 63.382 81.6697 63.9726L82.0064 64.9033L83.0113 64.5411ZM83.8089 61.8577C83.3379 62.0298 83.2681 62.5191 83.5026 63.1662L83.89 64.2253L85.2712 63.7283L84.8838 62.6692C84.6493 62.0221 84.2862 61.6838 83.8089 61.8577Z"/><path fill="#fff" d="M78.1237 53.4105L81.299 52.9514C82.7618 52.7371 83.9316 53.4058 84.141 54.815C84.3504 56.2243 83.4199 57.1977 81.9594 57.4079L78.784 57.8671L78.6281 56.82L81.9328 56.3375C82.1005 56.3308 82.2649 56.2889 82.4152 56.2147C82.5656 56.1405 82.6985 56.0356 82.8056 55.9066C82.9126 55.7777 82.9913 55.6278 83.0365 55.4664C83.0817 55.3051 83.0924 55.136 83.068 54.9701C83.0436 54.8042 82.9846 54.6452 82.8948 54.5034C82.8049 54.3616 82.6863 54.2401 82.5466 54.1469C82.4069 54.0537 82.2493 53.9908 82.0838 53.9623C81.9183 53.9337 81.7488 53.9402 81.5861 53.9813L78.2796 54.4575L78.1237 53.4105Z"/><path fill="#fff" d="M83.5891 48.9774L77.9832 48.8564L77.9971 47.8084L83.6179 47.9218L83.5891 48.9774Z"/><path fill="#fff" d="M83.416 40.7155L84.4668 40.9013L83.9003 44.1614L78.3597 43.2055L78.5413 42.1605L83.0159 42.9486L83.416 40.7155Z"/><path fill="#fff" d="M84.4403 32.0977C85.888 32.6564 86.6719 34.0985 86.0022 35.834L85.3302 37.5735L80.1005 35.5492L80.7765 33.812C81.4668 32.0299 82.9989 31.5373 84.4403 32.0977ZM84.0581 33.0844C83.8514 32.993 83.6282 32.9447 83.4022 32.9426C83.1763 32.9405 82.9524 32.9845 82.7443 33.0721C82.5363 33.1596 82.3484 33.2887 82.1923 33.4516C82.0363 33.6144 81.9153 33.8075 81.8368 34.0189L81.4805 34.9302L84.7177 36.1945L85.0678 35.285C85.1521 35.076 85.193 34.8519 85.188 34.6265C85.1829 34.401 85.132 34.1788 85.0383 33.9734C84.9447 33.768 84.8102 33.5836 84.6431 33.4316C84.476 33.2795 84.2797 33.1629 84.0662 33.0889L84.0581 33.0844Z"/><path fill="#fff" d="M89.7247 19.2451L90.5435 19.936L89.599 21.0495L93.0702 23.9847L92.3846 24.7928L88.9134 21.8576L87.9711 22.9671L87.1563 22.2785L89.7247 19.2451Z"/><path fill="#fff" d="M96.5194 13.2993L99.9989 17.7013L99.1642 18.3582L97.7543 16.5747L95.8795 18.0495L97.2894 19.833L96.4569 20.4859L92.9775 16.084L93.8122 15.427L95.218 17.2082L97.0928 15.7335L95.687 13.9522L96.5194 13.2993Z"/><path fill="#fff" d="M102.015 11.2687L102.559 12.3407L104.332 11.4428L104.817 12.3923L103.044 13.2902L103.589 14.3622L105.718 13.2873L106.203 14.2368L103.126 15.7902L100.597 10.8003L103.67 9.2447L104.153 10.1983L102.015 11.2687Z"/><path fill="#fff" d="M114.653 11.5453L113.792 6.00672L117.202 5.48733L117.366 6.53886L115.007 6.90071L115.194 8.09181L117.162 7.78757L117.327 8.84539L115.349 9.14918L115.697 11.3896L114.653 11.5453Z"/><path fill="#fff" d="M126.104 5.39016L125.979 8.58854C125.921 10.0607 125.052 11.0844 123.627 11.0294C122.203 10.9743 121.413 9.87726 121.473 8.40104L121.592 5.21478L122.646 5.27044L122.517 8.59898C122.512 8.75656 122.538 8.91369 122.594 9.06141C122.649 9.20912 122.733 9.34453 122.841 9.45988C122.949 9.57524 123.079 9.66829 123.222 9.73374C123.366 9.79918 123.521 9.83572 123.679 9.84129C123.837 9.84685 123.994 9.82132 124.142 9.76616C124.29 9.71099 124.425 9.62728 124.541 9.51978C124.656 9.41229 124.749 9.28313 124.814 9.13967C124.879 8.99622 124.916 8.84127 124.921 8.68369L125.051 5.35111L126.104 5.39016Z"/><path fill="#fff" d="M134.341 6.96241L134.091 7.99616L132.688 7.66282L131.627 12.0743L130.594 11.8189L131.657 7.41371L130.254 7.08038L130.501 6.04035L134.341 6.96241Z"/><path fill="#fff" d="M142.613 10.2966L141.27 13.2006C140.652 14.537 139.453 15.1452 138.16 14.5457C136.867 13.9462 136.567 12.6447 137.179 11.2997L138.52 8.39977L139.485 8.8446L138.081 11.868C137.992 12.0125 137.935 12.1742 137.913 12.3425C137.891 12.5108 137.905 12.682 137.954 12.8447C138.003 13.0073 138.086 13.1578 138.198 13.2862C138.309 13.4146 138.447 13.518 138.601 13.5896C138.756 13.6611 138.923 13.6992 139.093 13.7013C139.263 13.7035 139.432 13.6696 139.588 13.6019C139.743 13.5342 139.883 13.4343 139.997 13.3087C140.111 13.1832 140.198 13.0348 140.25 12.8734L141.65 9.8477L142.613 10.2966Z"/><path fill="#fff" d="M145.694 18.9548L145.791 16.7066L145.274 16.3307L144.172 17.8325L143.316 17.2L146.628 12.6991L148.235 13.8789C149.405 14.7379 149.481 15.767 148.826 16.6344C148.597 16.9559 148.271 17.1955 147.895 17.3182C147.52 17.4408 147.115 17.4401 146.739 17.3162L146.721 19.7187L145.694 18.9548ZM145.907 15.4727L146.766 16.1012C146.852 16.1764 146.952 16.2338 147.061 16.2699C147.169 16.306 147.284 16.32 147.397 16.3112C147.511 16.3024 147.622 16.271 147.724 16.2187C147.825 16.1664 147.915 16.0944 147.988 16.0069C148.057 15.9126 148.104 15.8047 148.128 15.6904C148.152 15.5762 148.151 15.4581 148.125 15.3442C148.1 15.2302 148.05 15.1229 147.98 15.0294C147.91 14.9359 147.821 14.8583 147.718 14.8019L146.86 14.1734L145.907 15.4727Z"/><path fill="#fff" d="M153.279 19.7168L152.399 20.5331L153.749 21.9935L152.968 22.7169L151.617 21.2565L150.737 22.0729L152.359 23.8262L151.59 24.5563L149.249 22.0255L153.359 18.2249L155.706 20.7539L154.922 21.4813L153.279 19.7168Z"/><path fill="#FFCD1E" d="M163.728 31.5935L161.817 35.6768L157.531 34.233L157.904 33.0618L159.235 33.5245C159.481 33.6074 159.713 33.6939 159.925 33.7899C160.129 33.8819 160.325 33.9907 160.512 34.115L158.893 30.3474L159.965 29.8846L161.583 33.6523C161.605 33.5046 161.638 33.3588 161.682 33.216C161.724 33.0658 161.777 32.9188 161.841 32.7761C161.914 32.6428 161.967 32.4713 162.044 32.3029L162.622 31.0392L163.728 31.5935Z"/><path fill="#fff" d="M160.467 53.0665L162.418 51.9508L162.463 51.3157L160.6 51.1819L160.66 50.1172L166.256 50.5233L166.121 52.5072C166.021 53.9506 165.19 54.5623 164.11 54.4869C163.714 54.4644 163.337 54.3161 163.032 54.0636C162.727 53.8111 162.51 53.4678 162.415 53.0841L160.371 54.3489L160.467 53.0665ZM163.514 51.3858L163.454 52.4504C163.436 52.5633 163.441 52.6787 163.468 52.7898C163.496 52.9008 163.545 53.0053 163.614 53.0969C163.683 53.1886 163.769 53.2656 163.868 53.3234C163.967 53.3812 164.077 53.4186 164.19 53.4335C164.306 53.44 164.422 53.422 164.53 53.3806C164.638 53.3392 164.736 53.2753 164.817 53.1932C164.899 53.1111 164.962 53.0126 165.002 52.9042C165.043 52.7959 165.06 52.6801 165.052 52.5646L165.112 51.5L163.514 51.3858Z"/><path fill="#fff" d="M161.021 63.5827C160.469 63.4177 159.977 63.0931 159.608 62.6499C159.24 62.2068 159.01 61.6648 158.949 61.0923C158.888 60.5199 158.998 59.9425 159.265 59.433C159.532 58.9235 159.944 58.5046 160.45 58.2292C160.955 57.9537 161.531 57.834 162.106 57.8851C162.68 57.9362 163.226 58.1559 163.676 58.5164C164.127 58.8769 164.46 59.3621 164.635 59.911C164.81 60.4598 164.818 61.0477 164.659 61.6005C164.44 62.3455 163.935 62.9729 163.253 63.3446C162.57 63.7163 161.768 63.8019 161.021 63.5827V63.5827ZM161.316 62.5633C161.668 62.6613 162.041 62.6531 162.388 62.5398C162.735 62.4265 163.04 62.2132 163.265 61.9267C163.491 61.6401 163.626 61.2932 163.654 60.9296C163.683 60.566 163.602 60.2019 163.424 59.8833C163.246 59.5646 162.977 59.3056 162.652 59.1389C162.326 58.9722 161.959 58.9052 161.596 58.9463C161.234 58.9875 160.891 59.1349 160.613 59.3701C160.334 59.6054 160.131 59.9178 160.03 60.2681C159.961 60.503 159.94 60.7494 159.967 60.9928C159.994 61.2363 160.07 61.472 160.189 61.6863C160.308 61.9006 160.469 62.0892 160.661 62.2412C160.854 62.3931 161.075 62.5054 161.311 62.5714L161.316 62.5633Z"/><path fill="#fff" d="M156.344 70.2254L155.298 70.1266C155.153 69.4802 155.242 68.8039 155.55 68.2181C155.731 67.8782 155.978 67.5775 156.275 67.333C156.573 67.0886 156.916 66.9052 157.285 66.7933C157.654 66.6814 158.042 66.6433 158.426 66.6811C158.81 66.7189 159.183 66.8319 159.524 67.0136C159.865 67.1953 160.167 67.4421 160.412 67.74C160.657 68.038 160.842 68.3811 160.955 68.7499C161.067 69.1187 161.106 69.5059 161.069 69.8895C161.032 70.273 160.92 70.6453 160.739 70.9852C160.428 71.5675 159.919 72.0195 159.303 72.2595L158.636 71.447C159.13 71.2953 159.543 70.9547 159.785 70.4995C159.914 70.2288 159.976 69.9306 159.963 69.6307C159.951 69.3308 159.866 69.0382 159.716 68.7782C159.565 68.5182 159.353 68.2986 159.099 68.1384C158.844 67.9782 158.555 67.8822 158.255 67.8587C157.955 67.8352 157.655 67.8849 157.379 68.0036C157.103 68.1222 156.861 68.3061 156.672 68.5395C156.484 68.7729 156.355 69.0488 156.298 69.3432C156.24 69.6376 156.255 69.9418 156.341 70.2294L156.344 70.2254Z"/><path fill="#fff" d="M149.957 76.0751L150.825 75.0514L154.055 75.0289L152.172 73.4588L152.858 72.6507L157.148 76.2664L156.463 77.0746L154.694 75.5673L155.2 78.5715L154.334 79.5911L153.821 76.0447L149.957 76.0751Z"/><path fill="#fff" d="M149.609 82.4862L148.856 81.5418L147.301 82.7924L146.633 81.9633L148.184 80.7104L147.436 79.7682L145.559 81.2469L144.886 80.4155L147.568 78.2578L151.092 82.6265L148.407 84.782L147.738 83.9529L149.609 82.4862Z"/><path fill="#fff" d="M141.26 89.0973L140.777 88.1541L142.062 87.4669L139.911 83.4674L140.842 82.9697L142.994 86.9692L144.284 86.2842L144.79 87.2243L141.26 89.0973Z"/><path fill="#fff" d="M131.872 88.3337C131.571 87.3756 132.065 86.3876 133.475 85.9538C133.876 85.8204 134.3 85.7715 134.722 85.8103C135.143 85.849 135.552 85.9746 135.922 86.179L135.691 87.228C135.405 87.0589 135.087 86.9496 134.758 86.907C134.428 86.8644 134.094 86.8893 133.775 86.9802C133.072 87.1982 132.747 87.5834 132.862 87.9586C132.978 88.3337 133.42 88.4045 134.147 88.2951C135.733 88.0592 136.427 88.4696 136.677 89.2787C136.928 90.0879 136.48 91.1751 135.145 91.5976C134.48 91.8145 133.759 91.7894 133.11 91.5266L133.265 90.5198C133.76 90.7178 134.307 90.7413 134.816 90.5865C135.357 90.4216 135.781 90.1234 135.65 89.6916C135.518 89.2599 135.186 89.287 134.376 89.3928C133.191 89.5342 132.226 89.4803 131.872 88.3337Z"/><path fill="#fff" d="M127.475 92.0125L127.342 90.8196L125.365 91.0345L125.247 89.9767L127.223 89.7617L127.09 88.5688L124.71 88.8346L124.594 87.7728L128.022 87.401L128.645 92.9667L125.215 93.3424L125.099 92.2806L127.475 92.0125Z"/><path fill="#fff" d="M117.485 88.5985L119.831 88.8048L120.335 87.78L121.515 87.9051L118.732 93.285L117.775 93.1984L115.967 87.4102L117.143 87.5331L117.485 88.5985ZM117.798 89.6957L118.393 91.7565L119.331 89.832L117.798 89.6957Z"/><path fill="#fff" d="M108.41 91.2342L108.695 90.2041L110.102 90.5975L111.318 86.23L112.34 86.5159L111.123 90.8835L112.53 91.2769L112.248 92.3031L108.41 91.2342Z"/><path fill="url(#paint0_linear_61743:5515)" fill-rule="evenodd" d="M58.2687 276.732C62.6275 277.467 67.1106 277.115 71.2861 275.71L71.1445 275.073C76.6535 264.845 73.6606 251.943 66.8041 242.491C59.9476 233.039 49.822 226.305 39.9194 219.779L26.1494 210.706L32.7266 242.297C34.9503 252.978 37.6831 264.513 46.3997 271.515C49.8223 274.2 53.9099 275.997 58.2687 276.732ZM49.5376 302.921C52.4328 301.491 54.8944 299.371 56.6851 296.767L56.3051 296.454C54.7654 288.113 46.9999 281.834 38.5798 279.225C30.1597 276.616 21.0912 276.994 12.2509 277.398L-0.0420532 277.961L18.532 293.656C24.8117 298.962 31.7877 304.551 40.1553 304.931C43.4113 305.043 46.6425 304.351 49.5376 302.921Z" clip-rule="evenodd"/><path fill="#1B873F" d="M70.109 313.958C71.5027 304.243 72.9358 294.403 71.9582 284.583C71.09 275.862 68.3099 267.344 62.6499 260.36C59.6456 256.66 55.99 253.49 51.8474 250.992C50.7671 250.34 49.7729 251.978 50.8484 252.628C58.0164 256.963 63.5606 263.365 66.6816 270.91C70.1287 279.301 70.6822 288.448 70.0882 297.361C69.729 302.752 68.9676 308.107 68.2004 313.455C68.14 313.697 68.1777 313.951 68.306 314.168C68.4343 314.384 68.6436 314.545 68.8917 314.62C69.1447 314.685 69.4144 314.652 69.6423 314.528C69.8702 314.404 70.0379 314.2 70.109 313.958V313.958Z"/><path fill="#1B873F" d="M74.0478 319.543C67.3396 308.184 59.5588 295.559 45.6558 291.524C41.79 290.406 37.7365 290.006 33.7136 290.344C32.4457 290.449 32.7623 292.319 34.0279 292.215C40.7712 291.679 47.5015 293.383 53.0857 297.04C58.4592 300.54 62.6432 305.407 66.1844 310.568C68.3535 313.729 70.2964 317.024 72.2397 320.315C72.8608 321.366 74.6761 320.607 74.0478 319.543V319.543Z"/><path fill="url(#paint1_linear_61743:5515)" d="M253.846 91.9854L107.597 207.986C105.757 209.443 103.388 210.141 101.011 209.928C98.6333 209.715 96.4413 208.608 94.9155 206.85L33.2648 135.663C31.7431 133.902 31.0136 131.635 31.2361 129.36C31.4587 127.085 32.6152 124.987 34.4519 123.527L180.701 7.52567C182.541 6.06945 184.909 5.37123 187.287 5.58422C189.664 5.7972 191.856 6.90398 193.382 8.66174L255.033 79.8492C256.554 81.6103 257.284 83.877 257.061 86.1522C256.839 88.4274 255.682 90.5252 253.846 91.9854Z"/><path fill="#fff" d="M247.985 88.4925L105.098 201.827C104.15 202.577 102.93 202.937 101.705 202.827C100.481 202.717 99.3513 202.147 98.5653 201.242L39.7011 133.272C38.9172 132.364 38.5413 131.197 38.656 130.025C38.7706 128.852 39.3664 127.772 40.3126 127.02L183.199 13.6853C184.147 12.9351 185.367 12.5754 186.592 12.6851C187.817 12.7949 188.946 13.365 189.732 14.2706L248.596 82.2405C249.38 83.1477 249.756 84.3155 249.642 85.4875C249.527 86.6596 248.931 87.7403 247.985 88.4925Z"/><path fill="url(#paint2_linear_61743:5515)" d="M254.572 112.217L225.183 109.584L246.217 93.7412L257.548 106.825C257.99 107.324 258.264 107.94 258.334 108.59C258.405 109.241 258.268 109.897 257.942 110.473C257.729 110.863 257.436 111.209 257.083 111.492C256.735 111.766 256.334 111.971 255.903 112.095C255.472 112.22 255.02 112.261 254.572 112.217V112.217Z"/><path fill="url(#paint3_linear_61743:5515)" d="M195.555 61.8398L123.271 119.174C122.83 119.524 122.32 119.787 121.772 119.949C121.225 120.111 120.649 120.168 120.078 120.117C119.507 120.066 118.952 119.907 118.445 119.651C117.938 119.395 117.489 119.045 117.123 118.623C116.757 118.2 116.481 117.713 116.312 117.189C116.143 116.664 116.084 116.113 116.137 115.567C116.19 115.02 116.356 114.489 116.624 114.004C116.892 113.519 117.257 113.089 117.698 112.739L189.982 55.4048C190.424 55.0546 190.933 54.7911 191.481 54.6292C192.029 54.4674 192.605 54.4104 193.176 54.4615C193.747 54.5127 194.301 54.671 194.808 54.9273C195.315 55.1837 195.765 55.5331 196.131 55.9556C196.497 56.3782 196.772 56.8655 196.941 57.3899C197.11 57.9143 197.17 58.4654 197.116 59.0118C197.063 59.5582 196.897 60.0892 196.63 60.5744C196.362 61.0597 195.997 61.4896 195.555 61.8398V61.8398Z"/><path fill="url(#paint4_linear_61743:5515)" d="M160.178 66.8323L111.429 105.499C110.537 106.207 109.388 106.546 108.235 106.443C107.082 106.339 106.019 105.802 105.28 104.948C104.541 104.095 104.187 102.996 104.295 101.892C104.402 100.789 104.964 99.7715 105.856 99.0643L154.605 60.3972C155.497 59.69 156.646 59.3507 157.799 59.454C158.952 59.5573 160.015 60.0947 160.754 60.9481C161.493 61.8014 161.847 62.9007 161.739 64.0042C161.632 65.1078 161.07 66.125 160.178 66.8323Z"/><path fill="url(#paint5_linear_61743:5515)" d="M84.6411 145.912C92.1774 145.912 98.2869 140.065 98.2869 132.853C98.2869 125.64 92.1774 119.793 84.6411 119.793C77.1047 119.793 70.9952 125.64 70.9952 132.853C70.9952 140.065 77.1047 145.912 84.6411 145.912Z"/><path fill="url(#paint6_linear_61743:5515)" fill-rule="evenodd" d="M221.089 83.8298C221.089 86.1378 219.134 88.0088 216.722 88.0088C214.31 88.0088 212.355 86.1378 212.355 83.8298C212.355 81.5219 214.31 79.6509 216.722 79.6509C219.134 79.6509 221.089 81.5219 221.089 83.8298ZM204.955 97.3423C207.367 97.3423 209.322 95.4713 209.322 93.1633C209.322 90.8553 207.367 88.9844 204.955 88.9844C202.543 88.9844 200.588 90.8553 200.588 93.1633C200.588 95.4713 202.543 97.3423 204.955 97.3423ZM193.188 106.676C195.599 106.676 197.554 104.805 197.554 102.497C197.554 100.189 195.599 98.3176 193.188 98.3176C190.776 98.3176 188.821 100.189 188.821 102.497C188.821 104.805 190.776 106.676 193.188 106.676Z" clip-rule="evenodd"/><path fill="#FFB8B8" d="M147.123 312.266L157.148 312.265L161.917 275.26L147.121 275.261L147.123 312.266Z"/><path fill="#2F2E41" d="M144.566 309.134L164.308 309.133H164.309C165.962 309.133 167.598 309.444 169.124 310.05C170.651 310.655 172.038 311.541 173.206 312.66C174.374 313.778 175.301 315.105 175.933 316.566C176.565 318.027 176.891 319.592 176.891 321.174V321.565L144.567 321.566L144.566 309.134Z"/><path fill="#FFB8B8" d="M111.144 312.266L121.169 312.265L125.938 275.26L111.142 275.261L111.144 312.266Z"/><path fill="#2F2E41" d="M108.587 309.134L128.33 309.133H128.33C129.983 309.133 131.619 309.444 133.145 310.05C134.672 310.655 136.059 311.541 137.227 312.66C138.395 313.778 139.322 315.105 139.954 316.566C140.587 318.027 140.912 319.592 140.912 321.174V321.565L108.588 321.566L108.587 309.134Z"/><path fill="#2F2E41" d="M121.204 300.943H121.202L112.677 300.941C111.724 300.944 110.806 300.591 110.12 299.958C109.434 299.324 109.033 298.459 109.002 297.546L108.733 290.409C106.578 233.329 104.35 174.306 118.151 147.777L118.259 147.569L163.953 145.986L173.126 226.519C173.518 229.954 173.375 233.426 172.701 236.821L160.574 297.976C160.41 298.805 159.94 299.55 159.25 300.076C158.56 300.601 157.696 300.872 156.815 300.839L147.239 300.541C146.738 300.522 146.246 300.405 145.793 300.198C145.341 299.99 144.937 299.696 144.608 299.334C144.279 298.972 144.03 298.549 143.878 298.091C143.725 297.633 143.672 297.151 143.722 296.673L151.244 240.111C151.5 237.669 151.269 235.204 150.561 232.845L141.206 201.548C141.129 201.289 140.961 201.063 140.731 200.909C140.5 200.755 140.222 200.681 139.941 200.7C139.66 200.718 139.395 200.829 139.19 201.013C138.984 201.197 138.851 201.442 138.812 201.709L124.848 297.906C124.723 298.747 124.286 299.516 123.617 300.074C122.948 300.632 122.091 300.94 121.204 300.943V300.943Z"/><path fill="#FFB8B8" d="M126.668 65.4711C137.76 65.4711 146.752 56.8659 146.752 46.2508C146.752 35.6357 137.76 27.0305 126.668 27.0305C115.577 27.0305 106.585 35.6357 106.585 46.2508C106.585 56.8659 115.577 65.4711 126.668 65.4711Z"/><path fill="#FFB8B8" d="M74.0824 185.687C75.3333 185.409 76.5053 184.872 77.5158 184.113C78.5264 183.355 79.3509 182.394 79.9313 181.297C80.5116 180.201 80.8338 178.996 80.875 177.768C80.9162 176.54 80.6755 175.318 80.1698 174.188L112.553 104.171L94.0281 99.7061L68.0217 169.934C66.0949 170.873 64.5949 172.456 63.8059 174.382C63.0169 176.308 62.9937 178.445 63.7408 180.387C64.4878 182.329 65.9532 183.941 67.8592 184.917C69.7652 185.894 71.9795 186.168 74.0823 185.687H74.0824Z"/><path fill="#FFB8B8" d="M209.168 5.51349C209.559 6.68412 209.677 7.92256 209.514 9.14161C209.351 10.3607 208.91 11.5306 208.223 12.5692C207.537 13.6077 206.62 14.4894 205.539 15.1524C204.458 15.8153 203.238 16.2433 201.965 16.4061L155.708 78.8808L142.214 65.9402L191.926 8.59875C191.782 6.53418 192.434 4.49073 193.759 2.85562C195.084 1.2205 196.99 0.107311 199.115 -0.272989C201.24 -0.653288 203.437 -0.274281 205.29 0.792201C207.143 1.85868 208.523 3.53856 209.168 5.51349V5.51349Z"/><path fill="url(#paint7_linear_61743:5515)" fill-rule="evenodd" d="M166.241 73.1464C166.415 72.6311 166.471 72.0858 166.405 71.5478C166.34 71.0097 166.153 70.4914 165.86 70.0284C165.566 69.5654 165.171 69.1685 164.702 68.8649L148.232 58.1883C147.763 57.8846 147.231 57.681 146.673 57.5915C146.115 57.5021 145.543 57.5288 144.997 57.67C144.45 57.8111 143.942 58.0632 143.507 58.4093C143.071 58.7553 142.719 59.1871 142.473 59.6752L136.164 72.23C132.956 71.369 129.578 71.143 126.24 71.5885C122.631 72.0603 119.178 73.2992 116.135 75.2146C113.552 76.8399 111.32 78.9172 109.553 81.3326C108.248 81.3112 106.938 81.513 105.686 81.9409C102.96 82.8727 100.731 84.8006 99.4872 87.3023L88.5378 103.128C88.2254 103.579 88.0183 104.09 87.9307 104.625C87.8432 105.16 87.8771 105.707 88.0303 106.229C88.1835 106.75 88.4524 107.234 88.8185 107.647C89.1847 108.06 89.6396 108.393 90.1522 108.622L108.169 116.693C108.682 116.923 109.24 117.044 109.806 117.049C110.372 117.053 110.932 116.941 111.449 116.719C111.588 116.66 111.724 116.592 111.855 116.518L118.664 134.443L116.611 147.9C116.535 148.4 116.572 148.91 116.72 149.396C116.868 149.881 117.124 150.33 117.469 150.712C117.815 151.095 118.242 151.401 118.722 151.612C119.203 151.822 119.725 151.931 120.253 151.931H161.811C162.351 151.931 162.884 151.817 163.373 151.598C163.862 151.378 164.295 151.058 164.64 150.661C164.985 150.264 165.235 149.798 165.371 149.298C165.508 148.798 165.527 148.275 165.429 147.767L154.254 90.1397L152.958 87.4997L165.395 74.5341C165.778 74.1351 166.067 73.6618 166.241 73.1464Z" clip-rule="evenodd"/><path fill="#2F2E41" d="M153.057 38.2055C153.044 36.466 152.792 34.7357 152.306 33.0595C149.07 21.6166 137.125 14.7488 125.138 16.4723C122.806 15.8326 120.393 15.5092 117.968 15.5115V15.5115C111.798 15.5115 105.832 17.6228 101.146 21.4641C96.4605 25.3054 93.3646 30.6235 92.4175 36.458L82.7345 96.1143H135.067L143.518 44.0547C143.831 42.12 143.905 40.1567 143.738 38.2055H153.057Z"/><path fill="#CCC" d="M218.101 322H45.5659C45.349 322 45.141 321.918 44.9877 321.771C44.8343 321.624 44.7482 321.425 44.7482 321.218C44.7482 321.01 44.8343 320.811 44.9877 320.664C45.141 320.518 45.349 320.435 45.5659 320.435H218.101C218.318 320.435 218.526 320.518 218.679 320.664C218.833 320.811 218.919 321.01 218.919 321.218C218.919 321.425 218.833 321.624 218.679 321.771C218.526 321.918 218.318 322 218.101 322Z"/></g><defs><linearGradient id="paint0_linear_61743:5515" x1="-.042" x2="88.862" y1="212.941" y2="230.742" gradientUnits="userSpaceOnUse"><stop stop-color="#FF008E"/><stop offset="1" stop-color="#FFCD1E"/></linearGradient><linearGradient id="paint1_linear_61743:5515" x1="31.197" x2="292.573" y1="10.396" y2="84" gradientUnits="userSpaceOnUse"><stop stop-color="#FF008E"/><stop offset="1" stop-color="#FFCD1E"/></linearGradient><linearGradient id="paint2_linear_61743:5515" x1="225.183" x2="259.447" y1="94.18" y2="109.84" gradientUnits="userSpaceOnUse"><stop offset="0" stop-color="#FF1393"/><stop offset="0" stop-color="#FF007A"/><stop offset=".177" stop-color="#FFB31E"/></linearGradient><linearGradient id="paint3_linear_61743:5515" x1="116.118" x2="208.196" y1="56.002" y2="84.939" gradientUnits="userSpaceOnUse"><stop stop-color="#FF008E"/><stop offset="1" stop-color="#FFCD1E"/></linearGradient><linearGradient id="paint4_linear_61743:5515" x1="104.276" x2="169.71" y1="60.551" y2="80.933" gradientUnits="userSpaceOnUse"><stop stop-color="#FF008E"/><stop offset="1" stop-color="#FFCD1E"/></linearGradient><linearGradient id="paint5_linear_61743:5515" x1="70.995" x2="102.82" y1="120.413" y2="128.887" gradientUnits="userSpaceOnUse"><stop stop-color="#FF008E"/><stop offset="1" stop-color="#FFCD1E"/></linearGradient><linearGradient id="paint6_linear_61743:5515" x1="188.821" x2="225.702" y1="80.292" y2="91.513" gradientUnits="userSpaceOnUse"><stop stop-color="#FF008E"/><stop offset="1" stop-color="#FFCD1E"/></linearGradient><linearGradient id="paint7_linear_61743:5515" x1="87.883" x2="181.752" y1="59.779" y2="79.684" gradientUnits="userSpaceOnUse"><stop stop-color="#FF008E"/><stop offset="1" stop-color="#FFCD1E"/></linearGradient><clipPath id="clip0_61743:5515"><rect width="258" height="322" fill="#fff"/></clipPath></defs></svg>